<svg width="33" height="16" viewBox="0 0 33 16" fill="none" xmlns="http://www.w3.org/2000/svg">
<path d="M14.8304 3.20006H8.43032C7.15726 3.20006 5.93634 3.70578 5.03615 4.60597C4.13596 5.50616 3.63024 6.72709 3.63024 8.00015C3.63024 9.27321 4.13596 10.4941 5.03615 11.3943C5.93634 12.2945 7.15726 12.8002 8.43032 12.8002H14.8304V16.0003H8.43032C6.30855 16.0003 4.27368 15.1574 2.77337 13.6571C1.27305 12.1568 0.430176 10.1219 0.430176 8.00015C0.430176 5.87838 1.27305 3.84351 2.77337 2.34319C4.27368 0.84287 6.30855 0 8.43032 0H14.8304V3.20006ZM18.0305 12.8002H24.4306C25.7037 12.8002 26.9246 12.2945 27.8248 11.3943C28.725 10.4941 29.2307 9.27321 29.2307 8.00015C29.2307 6.72709 28.725 5.50616 27.8248 4.60597C26.9246 3.70578 25.7037 3.20006 24.4306 3.20006H18.0305V0H24.4306C26.5524 0 28.5873 0.84287 30.0876 2.34319C31.5879 3.84351 32.4308 5.87838 32.4308 8.00015C32.4308 10.1219 31.5879 12.1568 30.0876 13.6571C28.5873 15.1574 26.5524 16.0003 24.4306 16.0003H18.0305V12.8002ZM11.6304 6.40012H21.2306C21.6549 6.40012 22.0619 6.56869 22.362 6.86876C22.662 7.16882 22.8306 7.57579 22.8306 8.00015C22.8306 8.4245 22.662 8.83148 22.362 9.13154C22.0619 9.4316 21.6549 9.60018 21.2306 9.60018H11.6304C11.206 9.60018 10.7991 9.4316 10.499 9.13154C10.1989 8.83148 10.0304 8.4245 10.0304 8.00015C10.0304 7.57579 10.1989 7.16882 10.499 6.86876C10.7991 6.56869 11.206 6.40012 11.6304 6.40012Z" fill="white"/>
</svg>
