<svg width="35" height="29" viewBox="0 0 35 29" fill="none" xmlns="http://www.w3.org/2000/svg">
<path fill-rule="evenodd" clip-rule="evenodd" d="M35 3.37563C34.008 4.82657 32.8088 6.06281 31.4023 7.08439C31.4171 7.29167 31.4245 7.60258 31.4245 8.01713C31.4245 9.94185 31.1432 11.8628 30.5806 13.7801C30.018 15.6975 29.163 17.537 28.0155 19.2989C26.8681 21.0607 25.5023 22.619 23.9181 23.9737C22.334 25.3284 20.4241 26.4092 18.1885 27.2161C15.9528 28.023 13.5618 28.4264 11.0152 28.4264C7.00294 28.4264 3.33123 27.353 0 25.2062C0.518192 25.2654 1.0956 25.2951 1.73223 25.2951C5.06347 25.2951 8.03192 24.2735 10.6377 22.2303C9.08311 22.2007 7.69142 21.7232 6.46256 20.7979C5.23371 19.8726 4.38981 18.6918 3.93084 17.2557C4.41942 17.3297 4.87098 17.3668 5.28553 17.3668C5.92217 17.3668 6.55139 17.2853 7.17322 17.1225C5.51501 16.7819 4.14182 15.9565 3.05362 14.6463C1.96541 13.336 1.42132 11.8147 1.42132 10.0825V9.99366C2.42809 10.5563 3.50888 10.8598 4.66371 10.9042C3.68654 10.2527 2.90927 9.40144 2.33185 8.35025C1.75444 7.29906 1.46574 6.15906 1.46574 4.9302C1.46574 3.62732 1.79145 2.42069 2.44289 1.31028C4.23436 3.5163 6.41443 5.28183 8.98319 6.60692C11.5519 7.93201 14.302 8.66857 17.2335 8.81662C17.1151 8.25402 17.0558 7.70622 17.0558 7.17322C17.0558 5.18929 17.7554 3.49779 19.1545 2.09867C20.5536 0.699549 22.2451 0 24.2291 0C26.3018 0 28.0489 0.755068 29.4702 2.26523C31.084 1.95431 32.6015 1.37691 34.0228 0.532995C33.475 2.23563 32.4239 3.55329 30.8693 4.48604C32.2462 4.33799 33.6231 3.96785 35 3.37563Z" fill="white"/>
</svg>
