<svg width="35" height="35" viewBox="0 0 35 35" fill="none" xmlns="http://www.w3.org/2000/svg">
<path d="M17.4953 11.6642C14.2819 11.6642 11.6596 14.2866 11.6596 17.5C11.6596 20.7134 14.2819 23.3358 17.4953 23.3358C20.7087 23.3358 23.331 20.7134 23.331 17.5C23.331 14.2866 20.7087 11.6642 17.4953 11.6642ZM34.998 17.5C34.998 15.0834 35.0199 12.6886 34.8842 10.2764C34.7485 7.47448 34.1093 4.9878 32.0605 2.93891C30.0073 0.885649 27.525 0.250846 24.7232 0.115129C22.3066 -0.0205877 19.9119 0.0013022 17.4997 0.0013022C15.0831 0.0013022 12.6884 -0.0205877 10.2762 0.115129C7.47434 0.250846 4.9877 0.890027 2.93886 2.93891C0.885633 4.99217 0.250841 7.47448 0.115127 10.2764C-0.0205873 12.693 0.00130217 15.0877 0.00130217 17.5C0.00130217 19.9123 -0.0205873 22.3114 0.115127 24.7236C0.250841 27.5255 0.890011 30.0122 2.93886 32.0611C4.99208 34.1143 7.47434 34.7492 10.2762 34.8849C12.6928 35.0206 15.0875 34.9987 17.4997 34.9987C19.9163 34.9987 22.311 35.0206 24.7232 34.8849C27.525 34.7492 30.0116 34.11 32.0605 32.0611C34.1137 30.0078 34.7485 27.5255 34.8842 24.7236C35.0243 22.3114 34.998 19.9166 34.998 17.5ZM17.4953 26.4792C12.5264 26.4792 8.51627 22.469 8.51627 17.5C8.51627 12.531 12.5264 8.52081 17.4953 8.52081C22.4642 8.52081 26.4743 12.531 26.4743 17.5C26.4743 22.469 22.4642 26.4792 17.4953 26.4792ZM26.8421 10.2501C25.6819 10.2501 24.7451 9.31322 24.7451 8.15306C24.7451 6.9929 25.6819 6.05602 26.8421 6.05602C28.0022 6.05602 28.9391 6.9929 28.9391 8.15306C28.9394 8.42854 28.8854 8.70139 28.7801 8.95597C28.6749 9.21055 28.5204 9.44187 28.3256 9.63666C28.1308 9.83146 27.8995 9.98592 27.645 10.0912C27.3904 10.1964 27.1175 10.2504 26.8421 10.2501Z" fill="white"/>
</svg>
